<?xml version="1.0" standalone="no"?>
<!DOCTYPE svg PUBLIC "-//W3C//DTD SVG 1.1//EN" "http://www.w3.org/Graphics/SVG/1.1/DTD/svg11.dtd">
<svg xmlns:inkscape="http://www.inkscape.org/namespaces/inkscape" xmlns:sodipodi="http://sodipodi.sourceforge.net/DTD/sodipodi-0.dtd" xmlns="http://www.w3.org/2000/svg" xmlns:svg="http://www.w3.org/2000/svg" version="1.1" width="792" height="612" id="svg47" viewBox="0 0 792 612" sodipodi:docname="Acoustic Den Logo.cdr">
  <defs id="defs51"/>
  <sodipodi:namedview id="namedview49" pagecolor="#ffffff" bordercolor="#000000" borderopacity="0.25" inkscape:showpageshadow="2" inkscape:pageopacity="0.0" inkscape:pagecheckerboard="0" inkscape:deskcolor="#d1d1d1" inkscape:document-units="pt"/>
  <g id="Layer1000">
    <path d="m 198.9597,469.9742 -6.378,-14.7442 -6.3187,14.7442 z m -9.2696,-22.4901 h 6.0042 l 16.2188,37.1393 h -6.8424 l -3.7417,-8.8973 h -17.4339 l -3.7951,8.8973 h -6.6406 z" style="fill:#565757;fill-rule:evenodd" id="path2"/>
    <path d="m 238.0351,485.2569 c -2.6987,0 -5.1986,-0.4971 -7.4759,-1.4762 -2.2848,-0.9837 -4.2624,-2.3189 -5.9419,-4.0355 -1.678,-1.6957 -2.9969,-3.7105 -3.9479,-6.0234 -0.9584,-2.3145 -1.4346,-4.7951 -1.4346,-7.427 v -0.0994 c 0,-2.6379 0.4688,-5.1081 1.4035,-7.4121 0.9435,-2.2967 2.2551,-4.3129 3.9568,-6.0547 1.6942,-1.7373 3.6956,-3.1037 6.0175,-4.1096 2.3159,-0.9984 4.8766,-1.5014 7.691,-1.5014 1.6869,0 3.2195,0.141 4.6067,0.4243 1.3886,0.2819 2.6616,0.6751 3.8188,1.1825 1.1572,0.5133 2.2298,1.1201 3.212,1.8159 0.9807,0.7018 1.9168,1.4821 2.7907,2.3234 l -4.163,4.795 c -1.4718,-1.3709 -3.0355,-2.4806 -4.6838,-3.3233 -1.6483,-0.8382 -3.5266,-1.267 -5.6348,-1.267 -1.7566,0 -3.3811,0.3457 -4.8766,1.0311 -1.4881,0.6854 -2.7833,1.6171 -3.8722,2.7892 -1.0816,1.1839 -1.9317,2.5592 -2.5296,4.1348 -0.5905,1.5816 -0.8902,3.2669 -0.8902,5.0562 v 0.1157 c 0,1.7848 0.2997,3.4746 0.8902,5.071 0.5979,1.6067 1.448,2.9998 2.5296,4.1867 1.0889,1.2047 2.3841,2.1409 3.8722,2.8219 1.4955,0.6854 3.12,1.0251 4.8766,1.0251 2.2462,0 4.1779,-0.4287 5.795,-1.2877 1.6097,-0.8635 3.212,-2.0252 4.7921,-3.5014 l 4.163,4.2135 c -0.951,1.0207 -1.9406,1.9213 -2.9821,2.7165 -1.0355,0.7908 -2.1467,1.4703 -3.3425,2.0459 -1.1973,0.5875 -2.4999,1.0267 -3.9257,1.3189 -1.4183,0.2997 -2.9909,0.4511 -4.7149,0.4511 z" style="fill:#565757;fill-rule:evenodd" id="path4"/>
    <path d="m 280.0718,479.3001 c 1.8159,0 3.485,-0.3397 5.0027,-1.0251 1.5193,-0.681 2.8219,-1.6127 3.9108,-2.7892 1.0816,-1.178 1.9317,-2.5548 2.5459,-4.1349 0.6128,-1.5815 0.9124,-3.2669 0.9124,-5.0561 v -0.0994 c 0,-1.8011 -0.2996,-3.4909 -0.9124,-5.0932 -0.6142,-1.5964 -1.4717,-2.9777 -2.577,-4.1601 -1.0949,-1.178 -2.4139,-2.1097 -3.9553,-2.8159 -1.54,-0.7017 -3.218,-1.0578 -5.0339,-1.0578 -1.8175,0 -3.4895,0.3457 -5.0072,1.0311 -1.5178,0.6854 -2.8293,1.6171 -3.9093,2.7892 -1.0816,1.1839 -1.9332,2.5592 -2.5459,4.1348 -0.6128,1.5816 -0.9199,3.2669 -0.9199,5.0562 v 0.1157 c 0,1.7848 0.3057,3.4746 0.9199,5.071 0.6127,1.6067 1.4717,2.9939 2.5681,4.166 1.1038,1.178 2.4228,2.1201 3.9642,2.8159 1.54,0.7017 3.2195,1.0518 5.0369,1.0518 z m -0.1068,5.9568 c -2.8456,0 -5.4449,-0.503 -7.7979,-1.5029 -2.3456,-0.9985 -4.3692,-2.3605 -6.0561,-4.077 -1.6869,-1.721 -2.9984,-3.7372 -3.9494,-6.0339 -0.9495,-2.2981 -1.4257,-4.752 -1.4257,-7.3483 v -0.0994 c 0,-2.6023 0.4762,-5.0562 1.4257,-7.3543 0.951,-2.2981 2.2848,-4.3232 4.0028,-6.0605 1.7254,-1.7373 3.7565,-3.1141 6.1095,-4.1349 2.3545,-1.0103 4.9538,-1.5281 7.7979,-1.5281 2.8441,0 5.4404,0.503 7.7934,1.5014 2.3471,1.0059 4.3707,2.3605 6.0576,4.0829 1.6795,1.727 2.9984,3.7373 3.9494,6.0354 0.9495,2.2966 1.4257,4.7461 1.4257,7.3424 v 0.1157 c 0,2.5904 -0.4762,5.0339 -1.4257,7.3424 -0.951,2.2922 -2.2863,4.3188 -4.0028,6.0561 -1.7254,1.7373 -3.7565,3.1186 -6.111,4.1393 -2.353,1.0163 -4.9493,1.5237 -7.7934,1.5237 z" style="fill:#565757;fill-rule:evenodd" id="path6"/>
    <path d="m 324.8903,485.2049 c -2.3857,0 -4.5473,-0.3412 -6.479,-1.0266 -1.9242,-0.6914 -3.5814,-1.7106 -4.9464,-3.083 -1.3723,-1.3664 -2.4212,-3.0666 -3.166,-5.0814 -0.7359,-2.0206 -1.1038,-4.3647 -1.1038,-7.0352 v -21.2276 h 6.4255 v 20.9664 c 0,3.4391 0.8279,6.0561 2.491,7.8454 1.6557,1.7952 3.9553,2.6957 6.8855,2.6957 2.8975,0 5.1748,-0.8635 6.8305,-2.5859 1.6632,-1.727 2.491,-4.2862 2.491,-7.694 v -21.2276 h 6.433 v 20.9086 c 0,2.7476 -0.3828,5.1511 -1.135,7.2237 -0.7581,2.0726 -1.8159,3.804 -3.1883,5.1808 -1.3738,1.3916 -3.0295,2.4227 -4.976,3.1141 -1.948,0.6854 -4.1408,1.0266 -6.562,1.0266 z" style="fill:#565757;fill-rule:evenodd" id="path8"/>
    <path d="m 365.2371,485.1515 c -2.8426,0 -5.5665,-0.4807 -8.1628,-1.4495 -2.5993,-0.9628 -5.0072,-2.4435 -7.2148,-4.4434 l 3.8959,-4.6378 c 1.7937,1.5445 3.5948,2.7225 5.4241,3.5548 1.8263,0.8219 3.896,1.2343 6.2104,1.2343 2.0044,0 3.5978,-0.4183 4.7683,-1.261 1.181,-0.8472 1.7641,-1.9732 1.7641,-3.3753 v -0.1053 c 0,-0.6647 -0.1128,-1.2551 -0.3383,-1.764 -0.2285,-0.5119 -0.6587,-0.994 -1.2715,-1.4495 -0.6142,-0.4555 -1.4569,-0.8798 -2.5295,-1.267 -1.0786,-0.3813 -2.4747,-0.7685 -4.2031,-1.1557 -1.9673,-0.4511 -3.7253,-0.9733 -5.249,-1.5489 -1.5326,-0.5875 -2.8204,-1.2834 -3.8559,-2.1157 -1.0356,-0.8219 -1.8323,-1.8307 -2.3768,-3.0295 -0.5445,-1.1884 -0.8204,-2.6275 -0.8204,-4.3188 v -0.0994 c 0,-1.58 0.3145,-3.0355 0.9436,-4.3544 0.6216,-1.3085 1.4865,-2.4287 2.5829,-3.3648 1.0979,-0.9317 2.4154,-1.6587 3.9568,-2.1824 1.5489,-0.5341 3.2254,-0.7908 5.0503,-0.7908 2.709,0 5.1362,0.3932 7.2978,1.1824 2.1617,0.7953 4.1868,1.9376 6.0829,3.445 l -3.4762,4.9033 c -1.6868,-1.2299 -3.347,-2.166 -5.0042,-2.8203 -1.6498,-0.6439 -3.3218,-0.9747 -5.0087,-0.9747 -1.8901,0 -3.3633,0.4243 -4.4211,1.267 -1.0519,0.8427 -1.5786,1.8841 -1.5786,3.1096 v 0.1098 c 0,0.6958 0.1217,1.3234 0.368,1.8634 0.2507,0.5445 0.6943,1.0356 1.3486,1.4747 0.6498,0.4347 1.5488,0.8487 2.6883,1.2418 1.1512,0.3813 2.6022,0.7893 4.3662,1.2092 1.9317,0.491 3.6482,1.0296 5.1408,1.6379 1.4984,0.5904 2.7402,1.3233 3.7268,2.1824 0.991,0.8575 1.7328,1.8634 2.2388,2.9983 0.5163,1.1469 0.7655,2.4703 0.7655,3.9776 l 0.002,0.1053 c 0,1.7225 -0.3234,3.2655 -0.9673,4.6363 -0.6439,1.3724 -1.5385,2.534 -2.6883,3.4761 -1.1498,0.9585 -2.5296,1.6691 -4.1393,2.1661 -1.6097,0.4881 -3.3841,0.7329 -5.3158,0.7329 z" style="fill:#565757;fill-rule:evenodd" id="path10"/>
    <path d="m 397.6822,453.7538 h -11.6894 v -6.0027 h 29.9141 v 6.0027 h -11.6923 v 30.8696 h -6.5324 z" style="fill:#565757;fill-rule:evenodd" id="path12"/>
    <path d="m 425.7566,447.7511 h 6.4285 v 36.8723 h -6.4285 z" style="fill:#565757;fill-rule:evenodd" id="path14"/>
    <path d="m 461.8915,485.2569 c -2.7002,0 -5.1912,-0.4971 -7.4848,-1.4762 -2.2818,-0.9837 -4.2595,-2.3189 -5.9404,-4.0355 -1.6795,-1.6957 -2.9984,-3.7105 -3.9464,-6.0234 -0.9569,-2.3145 -1.4332,-4.7951 -1.4332,-7.427 v -0.0994 c 0,-2.6379 0.4659,-5.1081 1.402,-7.4121 0.9421,-2.2967 2.2566,-4.3129 3.9568,-6.0547 1.6913,-1.7373 3.7002,-3.1037 6.019,-4.1096 2.3189,-0.9984 4.8841,-1.5014 7.6941,-1.5014 1.6898,0 3.2239,0.141 4.611,0.4243 1.3872,0.2819 2.6587,0.6751 3.8159,1.1825 1.1572,0.5133 2.2299,1.1201 3.2135,1.8159 0.9792,0.7018 1.9153,1.4821 2.7996,2.3234 l -4.1705,4.795 c -1.4762,-1.3709 -3.031,-2.4806 -4.6852,-3.3233 -1.6483,-0.8382 -3.5281,-1.267 -5.6363,-1.267 -1.7536,0 -3.3811,0.3457 -4.8677,1.0311 -1.5014,0.6854 -2.7996,1.6171 -3.8885,2.7892 -1.0786,1.1839 -1.9213,2.5592 -2.5237,4.1348 -0.5964,1.5816 -0.8946,3.2669 -0.8946,5.0562 v 0.1157 c 0,1.7848 0.2982,3.4746 0.8946,5.071 0.6024,1.6067 1.4451,2.9998 2.5237,4.1867 1.0889,1.2047 2.3856,2.1409 3.8885,2.8219 1.4866,0.6854 3.1141,1.0251 4.8677,1.0251 2.2447,0 4.1764,-0.4287 5.7935,-1.2877 1.6231,-0.8635 3.2135,-2.0252 4.7936,-3.5014 l 4.1615,4.2135 c -0.948,1.0207 -1.9361,1.9213 -2.9776,2.7165 -1.037,0.7908 -2.1512,1.4703 -3.3455,2.0459 -1.1869,0.5875 -2.5014,1.0267 -3.9197,1.3189 -1.4228,0.2997 -2.994,0.4511 -4.7209,0.4511 z" style="fill:#565757;fill-rule:evenodd" id="path16"/>
    <path d="m 518.3548,478.7764 c 1.9317,0 3.6942,-0.3086 5.2654,-0.9257 1.5904,-0.6172 2.9301,-1.4762 4.0354,-2.5964 1.1098,-1.1038 1.9673,-2.4286 2.5845,-3.9671 0.6127,-1.5282 0.9168,-3.1928 0.9168,-4.9924 v -0.0994 c 0,-1.8011 -0.3041,-3.4806 -0.9168,-5.0295 -0.6172,-1.5548 -1.4747,-2.8841 -2.5845,-3.9938 -1.1053,-1.1157 -2.445,-1.9896 -4.0354,-2.6231 -1.5697,-0.6335 -3.3337,-0.9524 -5.2654,-0.9524 h -7.2697 v 25.1798 z m -13.6922,-31.0253 h 13.7442 c 2.8841,0 5.522,0.4659 7.9343,1.3976 2.4035,0.9317 4.4805,2.2239 6.2134,3.8678 1.7432,1.6527 3.083,3.5948 4.025,5.8246 0.9525,2.2299 1.4288,4.6423 1.4288,7.2386 v 0.1157 c 0,2.5904 -0.4763,5.0131 -1.4288,7.2638 -0.942,2.2462 -2.2832,4.1986 -4.025,5.8409 -1.7329,1.6543 -3.8114,2.9524 -6.2134,3.9109 -2.4123,0.9361 -5.0502,1.4124 -7.9343,1.4124 h -13.7442 z" style="fill:#565757;fill-rule:evenodd" id="path18"/>
    <path d="m 548.4855,447.7511 h 27.2837 v 5.8455 h -20.8611 v 9.4788 h 18.4962 v 5.8513 h -18.4962 v 9.8497 h 21.1341 v 5.847 h -27.5567 z" style="fill:#565757;fill-rule:evenodd" id="path20"/>
    <path d="m 586.4156,447.7511 h 5.9923 l 19.7113,25.4944 v -25.4944 h 6.4211 v 36.8723 h -5.4108 l -20.2869,-26.2377 v 26.2377 h -6.427 z" style="fill:#565757;fill-rule:evenodd" id="path22"/>
    <path d="m 395.9983,425.3664 c 0,0 -0.1736,-1.0208 -0.4925,-2.9376 -0.2775,-1.9153 -0.7537,-4.7208 -1.2151,-8.2949 -0.9673,-7.1391 -2.1646,-17.3449 -3.2328,-29.598 -1.0623,-12.2517 -1.9984,-26.5359 -2.626,-41.8498 -0.1854,-3.8262 -0.3027,-7.7192 -0.4139,-11.6612 -0.1335,-3.936 -0.2567,-7.924 -0.3071,-11.9386 -0.1944,-8.0442 -0.2152,-16.204 -0.2715,-24.3728 0.046,-8.1658 0.0623,-16.3301 0.2566,-24.3639 0.0609,-4.025 0.1573,-8.013 0.2953,-11.949 0.1335,-3.936 0.2314,-7.8246 0.4139,-11.6508 0.3071,-7.6629 0.7166,-15.0572 1.1498,-22.0762 0.4451,-7.019 0.951,-13.6507 1.4821,-19.7736 1.0653,-12.2472 2.27,-22.4589 3.2432,-29.5981 0.4659,-3.574 0.948,-6.3795 1.2255,-8.2904 0.3189,-1.9257 0.491,-2.936 0.491,-2.936 10e-4,0 0.1781,1.0103 0.4867,2.936 0.2893,1.9109 0.7655,4.7164 1.2418,8.2904 0.9673,7.1392 2.1764,17.3509 3.2342,29.5981 0.5282,6.1229 1.0311,12.7546 1.4866,19.7736 0.4347,7.019 0.8323,14.4133 1.1409,22.0762 0.1929,3.8262 0.2923,7.7148 0.4125,11.6508 0.1364,3.936 0.2462,7.924 0.3041,11.949 0.1884,8.0338 0.2047,16.1981 0.2463,24.3639 -0.0416,8.1688 -0.0638,16.3286 -0.2626,24.3728 -0.0564,4.0146 -0.1721,8.0026 -0.3027,11.9386 -0.1098,3.942 -0.2359,7.835 -0.4184,11.6612 -0.6231,15.3139 -1.5652,29.5981 -2.6334,41.8498 -1.0622,12.2531 -2.2551,22.4589 -3.2239,29.598 -0.4599,3.5741 -0.948,6.3796 -1.2254,8.2949 -0.319,1.9168 -0.4867,2.9376 -0.4852,2.9376 z" style="fill:#565757;fill-rule:evenodd" id="path24"/>
    <path d="m 435.1894,425.3664 c 0,0 -0.1676,-1.0208 -0.4925,-2.9376 -0.273,-1.9153 -0.7492,-4.7208 -1.2151,-8.2949 -0.9673,-7.1391 -2.172,-17.3449 -3.2283,-29.598 -1.0623,-12.2517 -2.0103,-26.5359 -2.6275,-41.8498 -0.184,-3.8262 -0.3042,-7.7192 -0.4243,-11.6612 -0.1306,-3.936 -0.2463,-7.924 -0.2982,-11.9386 -0.1929,-8.0442 -0.2152,-16.204 -0.273,-24.3728 0.0475,-8.1658 0.0638,-16.3301 0.2566,-24.3639 0.0638,-4.025 0.1573,-8.013 0.2983,-11.949 0.1216,-3.936 0.2314,-7.8246 0.4139,-11.6508 0.3041,-7.6629 0.7166,-15.0572 1.1513,-22.0762 0.451,-7.019 0.948,-13.6507 1.4821,-19.7736 1.0623,-12.2472 2.2655,-22.4589 3.2387,-29.5981 0.4718,-3.574 0.9481,-6.3795 1.2255,-8.2904 0.3249,-1.9257 0.4911,-2.936 0.4911,-2.936 0.001,0 0.178,1.0103 0.5029,2.936 0.273,1.9109 0.7492,4.7164 1.2255,8.2904 0.9732,7.1392 2.166,17.3509 3.2342,29.5981 0.5282,6.1229 1.0312,12.7546 1.4866,19.7736 0.4347,7.019 0.8368,14.4133 1.1409,22.0762 0.1825,3.8262 0.2923,7.7148 0.4125,11.6508 0.1468,3.936 0.2418,7.924 0.2982,11.949 0.1943,8.0338 0.2106,16.1981 0.2566,24.3639 -0.046,8.1688 -0.0786,16.3286 -0.2611,24.3728 -0.0623,4.0146 -0.178,8.0026 -0.3086,11.9386 -0.1201,3.942 -0.2359,7.835 -0.4183,11.6612 -0.6232,15.3139 -1.5653,29.5981 -2.6335,41.8498 -1.0563,12.2531 -2.2506,22.4589 -3.2238,29.598 -0.4704,3.5741 -0.9481,6.3796 -1.2196,8.2949 -0.3145,1.9168 -0.4925,2.9376 -0.4911,2.9376 z" style="fill:#565757;fill-rule:evenodd" id="path26"/>
    <path d="m 476.2529,425.3664 c 0,0 -0.1721,-1.1676 -0.4866,-3.356 -0.2715,-2.1868 -0.7582,-5.3959 -1.224,-9.4788 -0.9688,-8.1643 -2.1616,-19.8255 -3.2195,-33.8263 -1.0726,-13.995 -2.0103,-30.3295 -2.6319,-47.8317 -0.1884,-4.3752 -0.3041,-8.8186 -0.4199,-13.3199 -0.1305,-4.5013 -0.2448,-9.0545 -0.3085,-13.6552 -0.1885,-9.1865 -0.2137,-18.5125 -0.2612,-27.8444 0.0416,-9.3364 0.0579,-18.6639 0.2567,-27.8489 0.0519,-4.5962 0.1513,-9.1539 0.2878,-13.6448 0.1306,-4.5117 0.23,-8.9551 0.414,-13.3302 0.3085,-8.7519 0.7165,-17.204 1.1512,-25.223 0.4555,-8.0293 0.957,-15.6076 1.4807,-22.6043 1.0682,-14.0008 2.2714,-25.662 3.2446,-33.8263 0.4718,-4.083 0.9481,-7.2905 1.2255,-9.4788 0.319,-2.1884 0.4911,-3.3545 0.4911,-3.3545 0,0 0.1736,1.1661 0.497,3.3545 0.2789,2.1868 0.7492,5.3958 1.2255,9.4788 0.9732,8.1643 2.1779,19.8255 3.2342,33.8263 0.5341,6.9967 1.0371,14.5765 1.4925,22.6043 0.4333,8.019 0.8427,16.4711 1.1454,25.223 0.1884,4.3751 0.2878,8.8185 0.4139,13.3302 0.141,4.4909 0.2404,9.0486 0.2923,13.6448 0.1943,9.185 0.2151,18.5125 0.2626,27.8489 -0.0534,9.3319 -0.0786,18.6594 -0.2671,27.8444 -0.0578,4.6007 -0.178,9.1539 -0.3085,13.6552 -0.1158,4.5013 -0.23,8.9447 -0.414,13.3199 -0.6275,17.5022 -1.5652,33.8367 -2.6275,47.8317 -1.0667,14.0008 -2.2654,25.662 -3.2298,33.8263 -0.4703,4.0829 -0.9421,7.292 -1.2299,9.4788 -0.313,2.1884 -0.4866,3.356 -0.4866,3.356 z" style="fill:#00999f;fill-rule:evenodd" id="path28"/>
    <path d="m 519.1812,425.3664 c 0,0 -0.1721,-0.8012 -0.4866,-2.3085 -0.2774,-1.5074 -0.7537,-3.7105 -1.2195,-6.5161 -0.9733,-5.6169 -2.172,-13.6299 -3.2299,-23.2541 -1.0667,-9.6257 -2.0088,-20.8462 -2.626,-32.8843 -0.1884,-3.0102 -0.3041,-6.0605 -0.4243,-9.1539 -0.1305,-3.0992 -0.2462,-6.2341 -0.3086,-9.3853 -0.1839,-6.3217 -0.2151,-12.7383 -0.267,-19.1505 0.0519,-6.4211 0.0682,-12.8377 0.2611,-19.1549 0.0638,-3.1512 0.1513,-6.2861 0.2938,-9.3853 0.1246,-3.0874 0.2344,-6.1437 0.4183,-9.1539 0.3086,-6.0191 0.7062,-11.8289 1.1409,-17.345 0.4555,-5.5116 0.9585,-10.7235 1.4911,-15.5289 1.0622,-9.6302 2.261,-17.6476 3.2357,-23.2586 0.4644,-2.8055 0.9466,-5.0146 1.224,-6.5161 0.3086,-1.5029 0.497,-2.3085 0.497,-2.3085 0,0 0.1944,0.8056 0.4926,2.3085 0.2774,1.5015 0.7581,3.7106 1.224,6.5161 0.9747,5.611 2.1779,13.6284 3.2461,23.2586 0.5282,4.8054 1.0252,10.0173 1.4806,15.5289 0.4347,5.5161 0.8427,11.3259 1.1513,17.345 0.184,3.0087 0.2879,6.0665 0.414,9.1539 0.1365,3.0992 0.2344,6.2341 0.2982,9.3853 0.1884,6.3157 0.2032,12.7338 0.2507,19.1549 -0.0519,6.4122 -0.0786,12.8288 -0.2671,19.1505 -0.0623,3.1512 -0.1676,6.2861 -0.2982,9.3853 -0.1246,3.0919 -0.2403,6.1437 -0.4243,9.1539 -0.6275,12.0381 -1.5637,23.2586 -2.6378,32.8843 -1.046,9.6242 -2.2507,17.6372 -3.218,23.2541 -0.4658,2.8041 -0.9525,5.0087 -1.2195,6.5161 -0.319,1.5073 -0.4926,2.3085 -0.4926,2.3085 z" style="fill:#565757;fill-rule:evenodd" id="path30"/>
    <path d="m 354.9423,425.3664 c 0,0 -0.1676,-0.8012 -0.4896,-2.3085 -0.2759,-1.5074 -0.7522,-3.7105 -1.2195,-6.5161 -0.9733,-5.6169 -2.1616,-13.6299 -3.2284,-23.2541 -1.0652,-9.6257 -2.0088,-20.8462 -2.6289,-32.8843 -0.184,-3.0102 -0.2997,-6.0605 -0.4214,-9.1539 -0.1305,-3.0992 -0.2462,-6.2341 -0.2996,-9.3853 -0.1914,-6.3217 -0.2226,-12.7383 -0.2686,-19.1505 0.046,-6.4211 0.0623,-12.8377 0.2537,-19.1549 0.0608,-3.1512 0.1602,-6.2861 0.2982,-9.3853 0.1232,-3.0874 0.2226,-6.1437 0.4154,-9.1539 0.3057,-6.0191 0.7122,-11.8289 1.1409,-17.345 0.4525,-5.5116 0.9584,-10.7235 1.4881,-15.5289 1.0652,-9.6302 2.261,-17.6476 3.2358,-23.2586 0.4747,-2.8055 0.9495,-5.0146 1.2254,-6.5161 0.3071,-1.5029 0.4985,-2.3085 0.4985,-2.3085 0,0 0.1929,0.8056 0.4911,2.3085 0.2834,1.5015 0.7596,3.7106 1.2269,6.5161 0.9807,5.611 2.178,13.6284 3.2402,23.2586 0.5327,4.8054 1.0386,10.0173 1.4881,15.5289 0.4288,5.5161 0.8383,11.3259 1.1439,17.345 0.1839,3.0087 0.2922,6.0665 0.4154,9.1539 0.138,3.0992 0.2344,6.2341 0.2952,9.3853 0.1944,6.3157 0.2092,12.7338 0.2552,19.1549 -0.046,6.4122 -0.0757,12.8288 -0.27,19.1505 -0.0505,3.1512 -0.1691,6.2861 -0.2967,9.3853 -0.1217,3.0919 -0.2404,6.1437 -0.4243,9.1539 -0.6291,12.0381 -1.5638,23.2586 -2.6275,32.8843 -1.0682,9.6242 -2.2536,17.6372 -3.2269,23.2541 -0.4673,2.8041 -0.9436,5.0087 -1.2195,6.5161 -0.322,1.5073 -0.4911,2.3085 -0.4911,2.3085 z" style="fill:#565757;fill-rule:evenodd" id="path32"/>
    <path d="m 233.6332,425.3664 c 0,0 -0.1765,-0.9481 -0.4896,-2.7225 -0.2759,-1.7788 -0.7596,-4.3855 -1.2269,-7.7044 -0.9658,-6.6362 -2.1616,-16.109 -3.2284,-27.4824 -1.0652,-11.3734 -1.9999,-24.6458 -2.6289,-38.8618 -0.184,-3.5591 -0.2997,-7.1703 -0.4139,-10.8288 -0.1306,-3.6586 -0.2463,-7.3588 -0.3072,-11.096 -0.1913,-7.4581 -0.2151,-15.0468 -0.2685,-22.6251 0.046,-7.5798 0.0608,-15.1581 0.2537,-22.6266 0.0608,-3.7312 0.1602,-7.4314 0.2982,-11.09 0.1232,-3.6586 0.23,-7.2756 0.4139,-10.8289 0.3072,-7.102 0.7137,-13.98 1.1513,-20.4916 0.451,-6.516 0.9495,-12.676 1.4792,-18.3597 1.0652,-11.3734 2.2684,-20.8522 3.2432,-27.4884 0.4673,-3.3129 0.951,-5.9196 1.2269,-7.6985 0.322,-1.7803 0.497,-2.7328 0.497,-2.7328 0,0 0.1692,0.9525 0.4911,2.7328 0.276,1.7789 0.7596,4.3856 1.227,7.6985 0.9732,6.6362 2.1779,16.115 3.2431,27.4884 0.5208,5.6837 1.0282,11.8437 1.4792,18.3597 0.4377,6.5116 0.8442,13.3896 1.1424,20.4916 0.1928,3.5533 0.2922,7.1703 0.4139,10.8289 0.1469,3.6571 0.2463,7.3588 0.2997,11.09 0.1988,7.4685 0.2062,15.0468 0.2522,22.6266 -0.046,7.5783 -0.0682,15.167 -0.2596,22.6251 -0.0534,3.7372 -0.1766,7.4374 -0.3071,11.096 -0.1158,3.6585 -0.2374,7.2697 -0.414,10.8288 -0.629,14.216 -1.5637,27.4884 -2.6378,38.8618 -1.0578,11.3734 -2.2536,20.8462 -3.2269,27.4824 -0.4599,3.3189 -0.9436,5.9256 -1.2195,7.7044 -0.3145,1.7744 -0.4837,2.7225 -0.4837,2.7225 z" style="fill:#565757;fill-rule:evenodd" id="path34"/>
    <path d="m 272.8273,425.3664 c 0,0 -0.1765,-0.8012 -0.4911,-2.3085 -0.2759,-1.5074 -0.7596,-3.7105 -1.2269,-6.5161 -0.9658,-5.6169 -2.1616,-13.6299 -3.2209,-23.2541 -1.0727,-9.6257 -2.0074,-20.8462 -2.629,-32.8843 -0.184,-3.0102 -0.3071,-6.0605 -0.4213,-9.1539 -0.1306,-3.0992 -0.2448,-6.2341 -0.3072,-9.3853 -0.1913,-6.3217 -0.2151,-12.7383 -0.2685,-19.1505 0.0534,-6.4211 0.0623,-12.8377 0.2537,-19.1549 0.0608,-3.1512 0.1602,-6.2861 0.3056,-9.3853 0.1232,-3.0874 0.2226,-6.1437 0.414,-9.1539 0.2997,-6.0191 0.7062,-11.8289 1.1438,-17.345 0.451,-5.5116 0.9584,-10.7235 1.4866,-15.5289 1.0578,-9.6302 2.2625,-17.6476 3.2358,-23.2586 0.4673,-2.8055 0.951,-5.0146 1.2269,-6.5161 0.3056,-1.5029 0.497,-2.3085 0.497,-2.3085 10e-4,0 0.1929,0.8056 0.4911,2.3085 0.276,1.5015 0.7596,3.7106 1.227,6.5161 0.9747,5.611 2.1764,13.6284 3.2431,23.2586 0.5282,4.8054 1.0267,10.0173 1.4792,15.5289 0.4377,5.5161 0.8442,11.3259 1.1498,17.345 0.1854,3.0087 0.2923,6.0665 0.4139,9.1539 0.1395,3.0992 0.2389,6.2341 0.2997,9.3853 0.1914,6.3157 0.2077,12.7338 0.2537,19.1549 -0.0549,6.4122 -0.0771,12.8288 -0.2685,19.1505 -0.0549,3.1512 -0.1766,6.2861 -0.3071,9.3853 -0.1158,3.0919 -0.23,6.1437 -0.414,9.1539 -0.629,12.0381 -1.5637,23.2586 -2.6378,32.8843 -1.0578,9.6242 -2.2536,17.6372 -3.2195,23.2541 -0.4673,2.8041 -0.9435,5.0087 -1.2269,6.5161 -0.3145,1.5073 -0.4837,2.3085 -0.4822,2.3085 z" style="fill:#565757;fill-rule:evenodd" id="path36"/>
    <path d="m 313.8804,425.3664 c 0,0 -0.7522,-2.0415 -1.7106,-5.617 -0.9733,-3.574 -2.1617,-8.6776 -3.2269,-14.7961 -1.0667,-6.1228 -2.0014,-13.2724 -2.6304,-20.9248 -0.6751,-7.6629 -0.9659,-15.8213 -0.9896,-23.9915 0.009,-8.1599 0.2997,-16.3302 0.9673,-23.9871 0.3056,-3.8262 0.7047,-7.5264 1.1498,-11.0336 0.4436,-3.5117 0.9495,-6.8291 1.4792,-9.8913 1.0652,-6.1243 2.261,-11.2265 3.2431,-14.802 0.9659,-3.5695 1.7181,-5.6095 1.7181,-5.6095 0,-0.002 0.7507,2.04 1.7239,5.6095 0.9748,3.5755 2.1705,8.6777 3.2358,14.802 0.5296,3.0622 1.0355,6.3796 1.4866,9.8913 0.4376,3.5072 0.8441,7.2074 1.1423,11.0336 0.6751,7.6569 0.9599,15.8272 0.9659,23.9871 -0.0149,8.1702 -0.3131,16.3286 -0.9881,23.9915 -0.6216,7.6524 -1.5563,14.802 -2.6305,20.9248 -1.0563,6.1185 -2.2536,11.2221 -3.2268,14.7961 -0.9584,3.5755 -1.7091,5.617 -1.7091,5.617 z" style="fill:#565757;fill-rule:evenodd" id="path38"/>
    <path d="m 192.5728,425.3664 c 0,0 -0.7507,-1.7492 -1.7092,-4.8158 -0.9732,-3.0563 -2.1705,-7.4315 -3.2283,-12.682 -1.0652,-5.249 -2.0014,-11.3733 -2.629,-17.9368 -0.675,-6.5621 -0.9658,-13.5662 -0.9895,-20.5585 0.007,-6.9967 0.2997,-13.9993 0.9658,-20.5628 0.3071,-3.2773 0.7136,-6.4537 1.1424,-9.464 0.4525,-3.0043 0.9584,-5.8454 1.488,-8.4729 1.0653,-5.249 2.2611,-9.6198 3.2432,-12.6819 0.9659,-3.0667 1.7166,-4.8144 1.7166,-4.8144 0,0 0.7522,1.7477 1.7254,4.8144 0.9733,3.0621 2.169,7.4329 3.2358,12.6819 0.5281,2.6275 1.034,5.4701 1.4865,8.4729 0.4377,3.0103 0.8442,6.1867 1.1424,9.464 0.6676,6.562 0.9584,13.5661 0.9659,20.5628 -0.0223,6.9923 -0.3146,13.9964 -0.9881,20.5585 -0.6291,6.5635 -1.5638,12.6878 -2.6305,17.9368 -1.0578,5.2505 -2.2536,9.6257 -3.2268,12.682 -0.9584,3.0666 -1.7106,4.8158 -1.7106,4.8158 z" style="fill:#565757;fill-rule:evenodd" id="path40"/>
    <path d="m 558.3679,425.3664 c 0,0 -0.7433,-2.9213 -1.7017,-8.019 -0.9733,-5.1036 -2.172,-12.3941 -3.2298,-21.14 -1.0727,-8.7503 -2.0089,-18.962 -2.626,-29.8948 -0.6855,-10.9401 -0.9748,-22.6058 -0.9896,-34.267 0.004,-11.6656 0.2923,-23.3327 0.9629,-34.2655 0.3026,-5.4745 0.7062,-10.7606 1.1468,-15.7693 0.4495,-5.0102 0.9569,-9.7518 1.4851,-14.121 1.0578,-8.7519 2.261,-16.0423 3.2357,-21.14 0.9733,-5.1081 1.7166,-8.019 1.7166,-8.019 0,0 0.7581,2.9109 1.7269,8.019 0.9792,5.0977 2.1765,12.3881 3.2387,21.14 0.5297,4.3692 1.0371,9.1123 1.4822,14.121 0.445,5.0087 0.8427,10.2948 1.1512,15.7693 0.6647,10.9328 0.9585,22.5999 0.9629,34.2655 -0.0208,11.6612 -0.3145,23.3284 -0.9896,34.267 -0.6275,10.9328 -1.5592,21.1445 -2.6274,29.8948 -1.0668,8.7459 -2.2611,16.0364 -3.2284,21.14 -0.9584,5.0977 -1.7165,8.019 -1.7165,8.019 z" style="fill:#565757;fill-rule:evenodd" id="path42"/>
    <path d="m 599.4373,425.3664 c 0,0 -0.7537,-1.7492 -1.7107,-4.8158 -0.9747,-3.0563 -2.1675,-7.4315 -3.2298,-12.682 -1.0726,-5.249 -2.0043,-11.3733 -2.6275,-17.9368 -0.6809,-6.5621 -0.9732,-13.5662 -0.994,-20.5585 0.0149,-6.9967 0.2982,-13.9993 0.9629,-20.5628 0.3086,-3.2773 0.7121,-6.4537 1.1513,-9.464 0.4495,-3.0043 0.9525,-5.8454 1.4866,-8.4729 1.0578,-5.249 2.261,-9.6198 3.2342,-12.6819 0.9688,-3.0667 1.727,-4.8144 1.727,-4.8144 0,0 0.7492,1.7477 1.7165,4.8144 0.9747,3.0621 2.1779,7.4329 3.2447,12.6819 0.5296,2.6275 1.0266,5.4701 1.4761,8.4729 0.4407,3.0103 0.8427,6.1867 1.1469,9.464 0.6706,6.562 0.9628,13.5661 0.9732,20.5628 -0.0252,6.9923 -0.3145,13.9964 -0.9895,20.5585 -0.6276,6.5635 -1.5756,12.6878 -2.6379,17.9368 -1.0563,5.2505 -2.2551,9.6257 -3.2283,12.682 -0.9585,3.0666 -1.7017,4.8158 -1.7017,4.8158 z" style="fill:#565757;fill-rule:evenodd" id="path44"/>
  </g>
</svg>